<?xml version="1.0" encoding="utf-8"?>
<!-- Generator: Adobe Illustrator 26.0.0, SVG Export Plug-In . SVG Version: 6.00 Build 0)  -->
<svg version="1.1" id="Calque_1" xmlns="http://www.w3.org/2000/svg" xmlns:xlink="http://www.w3.org/1999/xlink" x="0px" y="0px"
	 viewBox="0 0 25 25" style="enable-background:new 0 0 25 25;" xml:space="preserve">
<style type="text/css">
	.st0{fill:#DF4F4F;}
</style>
<path class="st0" d="M7,7.5C7,5,9,3,11.5,3S16,5,16,7.5S14,12,11.5,12C9,12,7,10,7,7.5z M17.5,19H16v-1.5c0-0.3-0.2-0.5-0.5-0.5
	S15,17.2,15,17.5V19h-1.5c-0.3,0-0.5,0.2-0.5,0.5s0.2,0.5,0.5,0.5H15v1.5c0,0.3,0.2,0.5,0.5,0.5s0.5-0.2,0.5-0.5V20h1.5
	c0.3,0,0.5-0.2,0.5-0.5S17.8,19,17.5,19z M14,21h-0.5c-0.8,0-1.5-0.7-1.5-1.5s0.7-1.5,1.5-1.5H14v-0.5c0-0.8,0.7-1.5,1.5-1.5
	c0.2,0,0.3,0,0.5,0.1c-0.2-1.8-1.7-3.1-3.5-3.1h-2C8.6,13,7,14.6,7,16.5v5C7,21.8,7.2,22,7.5,22h6.6C14,21.8,14,21.7,14,21.5V21z"/>
</svg>
