<?xml version="1.0" encoding="utf-8"?>
<!-- Generator: Adobe Illustrator 23.0.3, SVG Export Plug-In . SVG Version: 6.00 Build 0)  -->
<svg version="1.1" id="Calque_1" xmlns="http://www.w3.org/2000/svg" xmlns:xlink="http://www.w3.org/1999/xlink" x="0px" y="0px"
	 viewBox="0 0 256 256" style="enable-background:new 0 0 256 256;" xml:space="preserve">
<style type="text/css">
	.st0{fill:#FFFFFF;}
</style>
<desc>Created with Fabric.js 1.7.22</desc>
<g transform="translate(128 128) scale(0.72 0.72)">
	<g transform="translate(-175.05 -175.05000000000004) scale(3.89 3.89)">
		<path class="st0" d="M89.4,7.3c-1-1.3-2.9-1.6-4.2-0.6c-11.8,9-22.9,19-33.1,29.8c-5.4,5.8-10.6,11.9-15.5,18.3
			c-2.6,3.4-5.1,6.9-7.4,10.6H29L15.3,38.1c-0.1-0.3-0.3-0.5-0.4-0.8c-2.5-3.9-7.8-4.9-11.6-2.2c-3.6,2.6-4.2,7.7-1.8,11.4
			l22.1,34.3l0.3,0.4c0.8,1.2,2,2.2,3.6,2.5c2.7,0.6,5.5-1,6.6-3.6C37,73.5,40.8,67,44.9,60.8c4.2-6.3,8.8-12.5,13.7-18.4
			C67.8,31.3,78,20.9,88.9,11.4C90.2,10.4,90.4,8.6,89.4,7.3z"/>
	</g>
</g>
</svg>
