<?xml version="1.0" encoding="utf-8"?>
<!-- Generator: Adobe Illustrator 23.0.3, SVG Export Plug-In . SVG Version: 6.00 Build 0)  -->
<svg version="1.1" id="Calque_1" xmlns="http://www.w3.org/2000/svg" xmlns:xlink="http://www.w3.org/1999/xlink" x="0px" y="0px"
	 viewBox="0 0 595.3 841.9" style="enable-background:new 0 0 595.3 841.9;" xml:space="preserve">
<style type="text/css">
	.st0{fill:none;stroke:#808285;stroke-width:5;stroke-miterlimit:10;}
	.st1{fill:none;stroke:#6D6E71;stroke-width:5;stroke-miterlimit:10;}
</style>
<circle class="st0" cx="261.4" cy="357.7" r="177.6"/>
<path class="st1" d="M338.9,292.7c-10.6-10.6-24.6-16.3-39.5-16.3c-14.9,0-29,5.8-39.5,16.4l-5.5,5.5l-5.6-5.6
	c-10.6-10.6-24.6-16.4-39.6-16.4c-14.9,0-28.9,5.8-39.4,16.3c-10.6,10.6-16.4,24.6-16.3,39.5c0,14.9,5.9,28.9,16.4,39.5l80.3,80.3
	c1.1,1.1,2.6,1.7,4.1,1.7c1.5,0,3-0.6,4.1-1.7l80.5-80.2c10.6-10.6,16.4-24.6,16.4-39.5C355.3,317.3,349.5,303.3,338.9,292.7z"/>
</svg>
