<?xml version="1.0" encoding="utf-8"?>
<!-- Generator: Adobe Illustrator 23.0.3, SVG Export Plug-In . SVG Version: 6.00 Build 0)  -->
<svg version="1.1" id="Calque_1" xmlns="http://www.w3.org/2000/svg" xmlns:xlink="http://www.w3.org/1999/xlink" x="0px" y="0px"
	 viewBox="0 0 841.9 595.3" style="enable-background:new 0 0 841.9 595.3;" xml:space="preserve">
<style type="text/css">
	.st0{fill:#F16986;}
	.st1{fill:#FAD1E3;}
</style>
<circle class="st0" cx="420.9" cy="263.1" r="161.8"/>
<path class="st1" d="M491.6,203.8c-9.6-9.6-22.4-14.9-36-14.9c-13.6,0-26.4,5.3-36,14.9l-5,5l-5.1-5.1c-9.6-9.6-22.5-15-36.1-15
	c-13.6,0-26.4,5.3-35.9,14.9c-9.6,9.6-14.9,22.4-14.9,36c0,13.6,5.3,26.4,15,36l73.2,73.2c1,1,2.4,1.6,3.7,1.6
	c1.3,0,2.7-0.5,3.7-1.5l73.4-73.1c9.6-9.6,14.9-22.4,14.9-36C506.5,226.2,501.3,213.5,491.6,203.8z"/>
</svg>
