<?xml version="1.0" encoding="utf-8"?>
<!-- Generator: Adobe Illustrator 23.0.3, SVG Export Plug-In . SVG Version: 6.00 Build 0)  -->
<svg version="1.1"
	 id="Layer_1" xmlns:cc="http://web.resource.org/cc/" xmlns:dc="http://purl.org/dc/elements/1.1/" xmlns:inkscape="http://www.inkscape.org/namespaces/inkscape" xmlns:ns1="http://sozi.baierouge.fr" xmlns:rdf="http://www.w3.org/1999/02/22-rdf-syntax-ns#" xmlns:sodipodi="http://sodipodi.sourceforge.net/DTD/sodipodi-0.dtd" xmlns:svg="http://www.w3.org/2000/svg"
	 xmlns="http://www.w3.org/2000/svg" xmlns:xlink="http://www.w3.org/1999/xlink" x="0px" y="0px" viewBox="0 0 100 77"
	 style="enable-background:new 0 0 100 77;" xml:space="preserve">
<style type="text/css">
	.st0{fill:#FFFFFF;}
</style>
<path class="st0" d="M50,32c-7.2,0-13,5.8-13,13s5.8,13,13,13s13-5.8,13-13S57.2,32,50,32z"/>
<path class="st0" d="M87,13H72c0-7.2-5.8-13-13-13H41c-7.2,0-13,5.8-13,13H13C5.8,13,0,18.8,0,26v38c0,7.2,5.8,13,13,13h74
	c7.2,0,13-5.8,13-13V26C100,18.8,94.2,13,87,13z M50,68c-12.7,0-23-10.3-23-23s10.3-23,23-23s23,10.3,23,23S62.7,68,50,68z"/>
</svg>
